<?xml version="1.0"?>
<svg width="26.458" height="26.458" xmlns="http://www.w3.org/2000/svg" xmlns:svg="http://www.w3.org/2000/svg" version="1.1">
 <g class="layer">
  <title>Layer 1</title>
  <rect fill="#000000" height="25.6" id="svg_8" stroke="#000000" width="25.4" x="0.53" y="0.39"/>
  <g id="svg_1" transform="matrix(1 0 0 1 0 0)">
   <g id="svg_2" transform="matrix(1.92017 0 0 1.9364 -25.5968 -82.763)">
    <path d="m15.27,49.59q0,1.3 0.57,2.26q0.58,0.96 1.6,1.55l-0.61,0.8q-1.44,-0.79 -2.1,-1.98q-0.67,-1.18 -0.67,-2.63q0,-1.46 0.69,-2.68q0.69,-1.23 2.12,-2.02l0.61,0.8q-1.02,0.6 -1.62,1.59q-0.59,1 -0.59,2.31z" fill="rgba(255,255,255,0.8)" id="svg_3"/>
    <path d="m19.42,54.15l-1.36,0l2.96,-9.14l1.34,0l-2.94,9.14z" fill="#00839a" id="svg_4"/>
    <path d="m25.17,49.59q0,-1.31 -0.6,-2.31q-0.59,-0.99 -1.61,-1.59l0.6,-0.8q1.44,0.79 2.13,2.02q0.69,1.22 0.69,2.68q0,1.45 -0.67,2.63q-0.67,1.19 -2.1,1.98l-0.61,-0.8q1.02,-0.59 1.59,-1.55q0.58,-0.96 0.58,-2.26z" fill="rgba(255,255,255,0.8)" id="svg_5"/>
   </g>
  </g>
 </g>
</svg>